<svg xmlns="http://www.w3.org/2000/svg" viewBox="0 0 100 100">
  <!-- Actuator housing -->
  <circle cx="50" cy="50" r="35" fill="#1a1a1a" stroke="#00a8ff" stroke-width="3"/>
  <!-- Internal mechanism -->
  <circle cx="50" cy="50" r="25" fill="none" stroke="#00a8ff" stroke-width="1" opacity="0.7"/>
  <circle cx="50" cy="50" r="15" fill="none" stroke="#00a8ff" stroke-width="1" opacity="0.5"/>
  <!-- Gear teeth -->
  <path d="M50,20 L53,25 L58,23 L60,28 L65,25 L68,30 L70,35 L68,40 L70,45 L65,48 L68,53 L60,55 L58,60 L53,58 L50,63 L47,58 L42,60 L40,55 L32,53 L35,48 L30,45 L32,40 L30,35 L32,30 L35,25 L40,28 L42,23 L47,25 Z"
        fill="none" stroke="#00a8ff" stroke-width="1" opacity="0.6"/>
  <!-- Center shaft -->
  <circle cx="50" cy="50" r="5" fill="#00a8ff" opacity="0.8"/>
  <!-- Connector points -->
  <circle cx="20" cy="50" r="4" fill="#00a8ff"/>
  <circle cx="80" cy="50" r="4" fill="#00a8ff"/>
  <circle cx="50" cy="20" r="4" fill="#00a8ff"/>
  <circle cx="50" cy="80" r="4" fill="#00a8ff"/>
  <!-- Status indicator -->
  <circle cx="70" cy="30" r="3" fill="#00ff00" opacity="0.8"/>
</svg>