<svg xmlns="http://www.w3.org/2000/svg" viewBox="0 0 200 200" fill="none">
  <!-- Head -->
  <circle cx="100" cy="50" r="20" stroke="#00a8ff" stroke-width="2" fill="rgba(0, 168, 255, 0.05)" />
  <!-- Eyes -->
  <circle cx="90" cy="45" r="3" fill="#00a8ff" />
  <circle cx="110" cy="45" r="3" fill="#00a8ff" />
  <!-- Body -->
  <rect x="85" y="70" width="30" height="50" rx="5" stroke="#00a8ff" stroke-width="2" fill="rgba(0, 168, 255, 0.05)" />
  <!-- Arms -->
  <line x1="85" y1="85" x2="60" y2="95" stroke="#00a8ff" stroke-width="2" />
  <line x1="115" y1="85" x2="140" y2="95" stroke="#00a8ff" stroke-width="2" />
  <circle cx="60" cy="95" r="5" fill="#00a8ff" />
  <circle cx="140" cy="95" r="5" fill="#00a8ff" />
  <!-- Legs -->
  <line x1="95" y1="120" x2="90" y2="160" stroke="#00a8ff" stroke-width="2" />
  <line x1="105" y1="120" x2="110" y2="160" stroke="#00a8ff" stroke-width="2" />
  <line x1="90" y1="160" x2="80" y2="165" stroke="#00a8ff" stroke-width="2" />
  <line x1="110" y1="160" x2="120" y2="165" stroke="#00a8ff" stroke-width="2" />
  <!-- Chest panel -->
  <rect x="90" y="80" width="20" height="15" rx="2" stroke="#00a8ff" stroke-width="1" fill="rgba(0, 168, 255, 0.1)" />
  <!-- Circuit details -->
  <path d="M95 55 Q100 60 95 65 M105 55 Q100 60 105 65" stroke="#00a8ff" stroke-width="1" fill="none" />
  <circle cx="100" cy="90" r="2" fill="#00a8ff" />
  <circle cx="95" cy="95" r="1" fill="#00a8ff" />
  <circle cx="105" cy="95" r="1" fill="#00a8ff" />
</svg>